<mxfile host="app.diagrams.net" modified="2021-09-17T07:03:31.996Z" agent="5.0 (Macintosh; Intel Mac OS X 10_15_7) AppleWebKit/537.36 (KHTML, like Gecko) Chrome/92.0.4515.159 Safari/537.36" etag="LAnLkH8nzBpDqHxvPY0N" version="15.1.4" type="github">
  <diagram id="nh1Bi0A80NLcw7Uq4RrT" name="Page-1">
    <mxGraphModel dx="1186" dy="557" grid="1" gridSize="10" guides="1" tooltips="1" connect="1" arrows="1" fold="1" page="1" pageScale="1" pageWidth="827" pageHeight="1169" math="0" shadow="0">
      <root>
        <mxCell id="0" />
        <mxCell id="1" parent="0" />
        <mxCell id="3TCkDp9ftF-Tg1c6JcK2-1" value="Projekt" style="rounded=0;whiteSpace=wrap;html=1;" vertex="1" parent="1">
          <mxGeometry x="430" y="450" width="120" height="60" as="geometry" />
        </mxCell>
        <mxCell id="3TCkDp9ftF-Tg1c6JcK2-3" value="Mitarbeiter" style="rounded=0;whiteSpace=wrap;html=1;" vertex="1" parent="1">
          <mxGeometry x="120" y="250" width="120" height="60" as="geometry" />
        </mxCell>
        <mxCell id="3TCkDp9ftF-Tg1c6JcK2-4" value="Personalnummer" style="ellipse;whiteSpace=wrap;html=1;" vertex="1" parent="1">
          <mxGeometry x="70" y="190" width="60" height="40" as="geometry" />
        </mxCell>
        <mxCell id="3TCkDp9ftF-Tg1c6JcK2-5" value="Firstname" style="ellipse;whiteSpace=wrap;html=1;" vertex="1" parent="1">
          <mxGeometry x="140" y="170" width="60" height="40" as="geometry" />
        </mxCell>
        <mxCell id="3TCkDp9ftF-Tg1c6JcK2-7" value="Lastname" style="ellipse;whiteSpace=wrap;html=1;" vertex="1" parent="1">
          <mxGeometry x="210" y="180" width="60" height="40" as="geometry" />
        </mxCell>
        <mxCell id="3TCkDp9ftF-Tg1c6JcK2-8" value="Teilaufgabe" style="rounded=0;whiteSpace=wrap;html=1;" vertex="1" parent="1">
          <mxGeometry x="120" y="450" width="120" height="60" as="geometry" />
        </mxCell>
        <mxCell id="3TCkDp9ftF-Tg1c6JcK2-9" value="" style="endArrow=none;html=1;exitX=0;exitY=0;exitDx=0;exitDy=0;entryX=0.5;entryY=1;entryDx=0;entryDy=0;" edge="1" parent="1" source="3TCkDp9ftF-Tg1c6JcK2-3" target="3TCkDp9ftF-Tg1c6JcK2-4">
          <mxGeometry width="50" height="50" relative="1" as="geometry">
            <mxPoint x="370" y="380" as="sourcePoint" />
            <mxPoint x="220" y="250" as="targetPoint" />
          </mxGeometry>
        </mxCell>
        <mxCell id="3TCkDp9ftF-Tg1c6JcK2-11" value="" style="endArrow=none;html=1;exitX=0.5;exitY=0;exitDx=0;exitDy=0;entryX=0.5;entryY=1;entryDx=0;entryDy=0;" edge="1" parent="1" source="3TCkDp9ftF-Tg1c6JcK2-3" target="3TCkDp9ftF-Tg1c6JcK2-5">
          <mxGeometry width="50" height="50" relative="1" as="geometry">
            <mxPoint x="370" y="380" as="sourcePoint" />
            <mxPoint x="420" y="330" as="targetPoint" />
          </mxGeometry>
        </mxCell>
        <mxCell id="3TCkDp9ftF-Tg1c6JcK2-12" value="" style="endArrow=none;html=1;entryX=0.5;entryY=1;entryDx=0;entryDy=0;exitX=0.75;exitY=0;exitDx=0;exitDy=0;" edge="1" parent="1" source="3TCkDp9ftF-Tg1c6JcK2-3" target="3TCkDp9ftF-Tg1c6JcK2-7">
          <mxGeometry width="50" height="50" relative="1" as="geometry">
            <mxPoint x="310" y="260" as="sourcePoint" />
            <mxPoint x="420" y="330" as="targetPoint" />
          </mxGeometry>
        </mxCell>
        <mxCell id="3TCkDp9ftF-Tg1c6JcK2-14" value="Arbeitet an" style="rhombus;whiteSpace=wrap;html=1;" vertex="1" parent="1">
          <mxGeometry x="115" y="350" width="130" height="60" as="geometry" />
        </mxCell>
        <mxCell id="3TCkDp9ftF-Tg1c6JcK2-15" value="" style="endArrow=none;html=1;exitX=0.5;exitY=1;exitDx=0;exitDy=0;entryX=0.5;entryY=0;entryDx=0;entryDy=0;" edge="1" parent="1" source="3TCkDp9ftF-Tg1c6JcK2-3" target="3TCkDp9ftF-Tg1c6JcK2-14">
          <mxGeometry width="50" height="50" relative="1" as="geometry">
            <mxPoint x="370" y="380" as="sourcePoint" />
            <mxPoint x="420" y="330" as="targetPoint" />
          </mxGeometry>
        </mxCell>
        <mxCell id="3TCkDp9ftF-Tg1c6JcK2-16" value="" style="endArrow=none;html=1;exitX=0.5;exitY=1;exitDx=0;exitDy=0;" edge="1" parent="1" source="3TCkDp9ftF-Tg1c6JcK2-14" target="3TCkDp9ftF-Tg1c6JcK2-8">
          <mxGeometry width="50" height="50" relative="1" as="geometry">
            <mxPoint x="370" y="380" as="sourcePoint" />
            <mxPoint x="420" y="330" as="targetPoint" />
          </mxGeometry>
        </mxCell>
        <mxCell id="3TCkDp9ftF-Tg1c6JcK2-17" value="Arbeitsstunden" style="ellipse;whiteSpace=wrap;html=1;" vertex="1" parent="1">
          <mxGeometry x="30" y="360" width="60" height="40" as="geometry" />
        </mxCell>
        <mxCell id="3TCkDp9ftF-Tg1c6JcK2-18" value="" style="endArrow=none;html=1;exitX=1;exitY=0.5;exitDx=0;exitDy=0;entryX=0;entryY=0.5;entryDx=0;entryDy=0;" edge="1" parent="1" source="3TCkDp9ftF-Tg1c6JcK2-17" target="3TCkDp9ftF-Tg1c6JcK2-14">
          <mxGeometry width="50" height="50" relative="1" as="geometry">
            <mxPoint x="370" y="380" as="sourcePoint" />
            <mxPoint x="420" y="330" as="targetPoint" />
          </mxGeometry>
        </mxCell>
        <mxCell id="3TCkDp9ftF-Tg1c6JcK2-19" value="" style="endArrow=none;html=1;exitX=0;exitY=0.5;exitDx=0;exitDy=0;" edge="1" parent="1" source="3TCkDp9ftF-Tg1c6JcK2-1" target="3TCkDp9ftF-Tg1c6JcK2-20">
          <mxGeometry width="50" height="50" relative="1" as="geometry">
            <mxPoint x="370" y="380" as="sourcePoint" />
            <mxPoint x="400" y="440" as="targetPoint" />
          </mxGeometry>
        </mxCell>
        <mxCell id="3TCkDp9ftF-Tg1c6JcK2-20" value="gehÃ¶rt zu" style="rhombus;whiteSpace=wrap;html=1;" vertex="1" parent="1">
          <mxGeometry x="290" y="460" width="80" height="40" as="geometry" />
        </mxCell>
        <mxCell id="3TCkDp9ftF-Tg1c6JcK2-21" value="" style="endArrow=none;html=1;exitX=1;exitY=0.5;exitDx=0;exitDy=0;entryX=0;entryY=0.5;entryDx=0;entryDy=0;" edge="1" parent="1" source="3TCkDp9ftF-Tg1c6JcK2-8" target="3TCkDp9ftF-Tg1c6JcK2-20">
          <mxGeometry width="50" height="50" relative="1" as="geometry">
            <mxPoint x="370" y="380" as="sourcePoint" />
            <mxPoint x="420" y="330" as="targetPoint" />
          </mxGeometry>
        </mxCell>
      </root>
    </mxGraphModel>
  </diagram>
</mxfile>
